<?xml version="1.0" encoding="UTF-8"?>
<!DOCTYPE svg PUBLIC "-//W3C//DTD SVG 1.1//EN" "http://www.w3.org/Graphics/SVG/1.1/DTD/svg11.dtd">
<!-- Creator: CorelDRAW 2026 -->
<svg xmlns="http://www.w3.org/2000/svg" xml:space="preserve" width="215.9mm" height="355.6mm" version="1.1" style="shape-rendering:geometricPrecision; text-rendering:geometricPrecision; image-rendering:optimizeQuality; fill-rule:evenodd; clip-rule:evenodd"
viewBox="0 0 21590 35560"
 xmlns:xlink="http://www.w3.org/1999/xlink"
 xmlns:xodm="http://www.corel.com/coreldraw/odm/2003">
 <defs>
  <style type="text/css">
   <![CDATA[
    .fil0 {fill:#161A20}
    .fil1 {fill:#F96B01}
   ]]>
  </style>
 </defs>
 <g id="Capa_x0020_1">
  <metadata id="CorelCorpID_0Corel-Layer"/>
  <g id="_1413688726208">
   <path class="fil0" d="M7164.86 12426.97c0,85.13 133.44,151.74 178.74,380.06 16.13,81.3 27.72,275.2 32.91,381.96 1.92,39.74 13.8,89.14 16.95,126.98 238.94,55.67 1151.16,0 1464.73,0 285.64,0 415.11,28.91 598.5,138.11 359.29,213.93 504.67,582.78 407.02,1002.87 -141.91,610.55 -799.85,589.03 -1131.37,722.83 -243.98,98.48 -138.17,107.19 -269.6,280.74 -85.42,112.78 -167.61,189.42 -293.82,264.98l-185.24 94.16c-420.71,179.86 -325.91,169.24 -126.67,368.63l821.26 787.41c33.53,33.73 61.04,52.04 93.21,84.58 31.48,31.84 57.14,57.29 88.83,88.98l277.28 264.58c67.28,51.34 113.9,119.8 180.3,175.31 90.11,75.31 112.2,112.66 181.72,173.88l183.41 172.18c46.58,36.4 38.14,44.49 80.24,45.9l59.49 0c285.95,-2.53 607.13,-17.09 872.71,-16.93 239.89,0.14 479.78,0 719.67,0 -8.36,-31.32 -3.7,-17.36 -24.94,-34.33 -74.98,-59.92 -203.71,-204.63 -281.87,-276.93l-893.22 -867.85c-25.72,-25.85 -42.84,-34.06 -68.02,-58.98 -83.03,-82.15 -168.12,-178.56 -253.9,-254.1l-253.94 -245.6c-57.13,-57.15 -219.18,-196.73 -256.11,-251.88 45.45,-10.59 88.1,-29.27 129.89,-47.91 303.31,-135.23 499.16,-240.46 748.61,-462.13 513.9,-456.66 607.1,-927.81 468.49,-1615.89 -36.07,-179.09 -81.52,-305.13 -149.55,-468.51 -145.17,-348.59 -399.03,-637.5 -734.58,-806.36 -147.73,-74.35 -306.73,-119.65 -479.07,-138.99l-356.26 -33.22c-36.91,-1.76 -30.92,-6.53 -67.77,-8.43l-445.19 -20.47c-93.37,-14.14 -201.14,5.94 -296.33,-8.47 -99.58,-15.07 -788.99,0.1 -897.58,15.5 -45.42,6.45 -138.93,5.74 -138.93,47.34z"/>
   <path class="fil1" d="M6258.92 13544.57c-210.99,0 -423.33,-102.53 -423.33,-338.67 0,-130.57 -7.48,-191.22 75.86,-296.67 14.76,-18.68 30.09,-27.44 48.92,-44.21 119.14,-106.09 312.36,-145.57 447.53,-70.56 108.23,60.07 215.09,203.82 215.09,335.24 0,137.56 -10.93,202.12 -116.25,307.09 -55.4,55.2 -140.11,107.78 -247.82,107.78zm584.2 4436.54l-88.3 0c-14.51,-2.48 -27.04,-7.85 -36.95,-18.68 -7.21,-7.89 -23.59,-32.33 -32.04,-44.16l-272.79 -404.55c-20.74,-30.9 -36.37,-54.52 -57.59,-86.34 -81.02,-121.53 -155.37,-234.77 -235.49,-357.18 -40.95,-62.57 -75.24,-121.73 -114.95,-181.38 -65.64,-98.6 -174.43,-266.61 -217.91,-374.75 -74.26,-184.7 -76.19,-437.57 20.25,-610.13 261.02,-467.06 957.82,-539.23 1411.63,-688.11 108.78,-35.69 199.88,-73.56 199.88,-172.66 0,-126.05 -497.7,-285.35 -622.96,-333.77 -61.81,-23.9 -122.44,-43.09 -182.45,-63.08 -62.42,-20.8 -113.87,-40.92 -175.65,-61.43 -214.1,-71.07 -209.38,-43.62 -297.44,-176.69l-294.53 -425.13c-164.5,-246.84 -416.64,-516.27 -416.64,-827.97 0,-105.14 40.69,-237.34 72.48,-316.98 90.86,-227.63 425.34,-487.35 681.05,-487.35 97.37,0 298.41,48.73 366.95,81.79 147.48,71.12 135.62,69.77 253.36,186.9 219.84,218.7 275.78,509.74 165.89,805.37 -42.9,115.42 -300.58,478.87 -388.23,602.37 -44.12,62.16 -207.28,277.07 -211.7,330.17 17.83,18.79 25.89,24.89 52.6,32.07 52.08,13.99 98.21,10.44 197.83,39.24 396.54,114.62 864.89,202.18 1239.6,369.07 108.27,48.22 321.84,167.6 321.84,313.16 0,152.04 -137.5,246.33 -260.02,298.78 -254.03,108.75 -548.95,195.05 -764.51,302.28 -142.44,70.86 -228.54,145.16 -228.54,304.87 0,222.16 132.88,280.3 230.84,378.76l410.51 402.29c41.58,41.58 77.07,76.84 118.53,118.54l359.85 342.89c41.46,41.7 77.01,76.9 118.52,118.54l236.96 228.71c24.21,22.38 38.78,29.66 63.68,54.85 59.67,60.35 268.46,253.79 289.91,285.82 -98.1,0 -188.21,8.47 -296.33,8.47 -90.18,0 -209.22,-6.73 -295.89,0.44 -177.7,14.71 -398.92,1.34 -576.62,16.05 -89.11,7.37 -211.62,0.44 -304.36,0.44l-440.27 8.47z"/>
  </g>
 </g>
 <g id="Capa_x0020_1_2">
  <metadata id="CorelCorpID_1Corel-Layer"/>
 </g>
</svg>
