<?xml version="1.0" encoding="UTF-8"?>
<!DOCTYPE svg PUBLIC "-//W3C//DTD SVG 1.1//EN" "http://www.w3.org/Graphics/SVG/1.1/DTD/svg11.dtd">
<!-- Creator: CorelDRAW 2026 -->
<svg xmlns="http://www.w3.org/2000/svg" xml:space="preserve" width="215.9mm" height="355.6mm" version="1.1" style="shape-rendering:geometricPrecision; text-rendering:geometricPrecision; image-rendering:optimizeQuality; fill-rule:evenodd; clip-rule:evenodd"
viewBox="0 0 21590 35560"
 xmlns:xlink="http://www.w3.org/1999/xlink"
 xmlns:xodm="http://www.corel.com/coreldraw/odm/2003">
 <defs>
  <style type="text/css">
   <![CDATA[
    .fil0 {fill:#FEFEFE}
    .fil1 {fill:#FA6D02}
   ]]>
  </style>
 </defs>
 <g id="Capa_x0020_1">
  <metadata id="CorelCorpID_0Corel-Layer"/>
  <g id="_1448990656128">
   <path class="fil0" d="M25841.1 21741.19l0 -1541.51c0,-65.92 5.82,-100.38 9.7,-150.87 2.18,-28.37 -1.62,-41.99 5.72,-69.22l42.35 -118.22c79.97,-129.54 85.96,-114.41 201.1,-205.69 69.28,-54.94 16.47,3.51 119.28,-41.29 105.79,-46.09 1658.89,-24.89 1869.88,-24.89 121.02,0 127.97,20.22 224.26,43.37 44.71,10.75 123.97,76.74 157.54,110.08 86.27,85.67 142.74,295.3 142.74,392.5 0,272.41 17.07,1683.23 -16.94,1845.71 -7.92,37.79 -9.82,39.28 -16.41,79.94 -6.44,39.77 -7.77,47.11 -26.2,80.81 -106.54,194.75 -61.73,143.13 -257.07,246.37 -64.65,34.17 -164.14,38.68 -250.49,38.27 -137,-0.65 -250.61,10.46 -396.33,10.46 -364.59,0 -754.48,12.48 -1115.67,-7.25 -35.74,-1.95 -30.74,7.25 -72.57,7.25 -46.58,0 -253.97,-23.42 -284.98,-36.18l-168.98 -98.63 -113.53 -154.1c-48.49,-143.34 -53.4,-234.1 -53.4,-406.91zm-995.55 -1712.79c0,357.03 -20.48,2093.26 22.99,2342.79l27.54 165.15c16.72,91 106.73,374.41 159.81,439.67l302.24 286.52c49.9,29.23 91.83,41.05 145.89,57.49 66.32,20.17 -8.63,20.92 141.64,51.14 60.16,12.1 78.37,37.96 163.27,40.05 55.92,1.38 120.73,6.04 179.05,13.64l377.41 18.67c313.82,-1.29 1691.42,10.27 1797.13,-1.83 26.72,-3.06 40.38,-10.52 76.25,-9.46 87.34,2.58 -11.12,14.68 149.77,0.07l312.65 -29.97c65.99,-11.24 275.43,-70 327,-101.2l108.97 -62.31c62.15,-31.21 130.31,-109.25 180.38,-162.18l91.82 -122.27c50.77,-77.95 150.6,-342.92 156.91,-399.75 12.04,-108.45 -27.45,-82.79 23.52,-190.58 12.03,-25.46 2.85,0.31 10.53,-32.29 21.59,-91.61 8.91,-2223.81 8.91,-2506.74 0,-215.49 -45.69,-109.61 -42.69,-299.86 0.42,-26.8 2.98,-56.76 -3.22,-82.43 -4.08,-16.88 -14.97,-31.2 -25.4,-60.23 -17.77,-49.46 -17.2,-85.19 -37.82,-133.47l-112.2 -230.42c-33.13,-57.97 -50.73,-58.35 -79.75,-91.38 -99.84,-113.65 -81.28,-81.56 -193.23,-160.12 -20.11,-14.11 -35,-23.67 -54.45,-31.18l-117.87 -53.41c-243.95,-59.8 -244.35,-87.83 -511.28,-88.2 -67.66,-0.09 -88.98,-11.61 -159.95,-11.32l-2002.07 0.25c-112.45,0 -404.52,4.49 -502.06,33.19 -78.59,23.12 -116.67,20.27 -151.6,30.38l-245.83 107.43c-19.44,12.21 -30.43,20.51 -52.58,33.06 -10.19,5.78 -14.35,7.87 -27.81,15.01 -44.94,23.82 -181,155.32 -210.31,196.47l-63.27 118.72c-47.86,88.83 -14.13,46.54 -56.03,125.96 -19.23,36.45 -10.23,23.54 -21.15,64.48l-54.68 212.95c-32.66,156.55 -22.61,234.33 -35.51,328.45 -7.92,57.83 -2.92,120.16 -2.92,179.06z"/>
   <path class="fil0" d="M14370.71 23411.15c64.12,-28.19 3120.09,-28.3 3188.95,0 110.35,0 261.52,15.48 338.4,-21.41 0,-170.89 21.15,-842.63 -21.41,-931.32 -25.94,-25.95 -2354.35,-10.71 -2761.86,-10.71 -121.73,0 -298.74,20.16 -385.38,-21.41 0,-82.16 1.31,-161.46 -7.78,-227.73 -6.8,-49.61 19.07,-457.3 6.97,-596.23 -5.88,-67.54 -4.64,-41.83 0.81,-107.37 183.21,-42.68 2838.96,16.93 2916.4,-16.74 37.81,-16.44 28.75,-39.29 28.05,-89.7 -1.92,-138.93 12.74,-832.95 -11.3,-857 -52.99,-52.98 -2729.95,25.94 -2933.15,-21.4l0 -920.63c273.3,0 515.27,-10.55 781.46,-10.7 134.71,-0.08 242.77,10.7 385.38,10.7l802.87 0c142.95,0 248.39,-10.74 385.37,-10.7 226.76,0.06 521.12,-8.05 745.37,4.78 69.85,3.99 57.83,-23.07 63.22,-41.88 11.1,-38.62 4.98,-395.37 4.98,-444.62 0,-133.32 21.59,-402.83 -21.41,-492.43 -61.81,0 -48.93,13.61 -111.14,4.95 -77.94,-10.87 -261.39,5.76 -381.28,5.76 -183.99,0 -339.36,-10.72 -513.84,-10.71l-1039.94 1.57c-93.49,-10.5 -880.35,-1.57 -1047.51,-1.57 -155.68,0 -987.35,-8.64 -1027.67,10.71 -28.46,28.45 -10.71,3784.72 -10.71,4485.35l-10.7 299.74 310.44 10.7c108.8,0 217.61,0 326.41,0z"/>
   <path class="fil0" d="M19043.49 19632.32l0 3650.37c0,59.43 -10.71,63.48 -10.71,117.76 91.5,21.32 904.06,21.32 995.56,0 27.82,-119.41 10.71,-3337.56 10.71,-3736.01 0,-103.49 -19.23,-81.55 107.06,-75.13 182.97,9.3 508.69,-10.51 727.92,-10.51l1370.3 10.63c135.34,-0.87 255.03,41.48 335.08,146.64 9.34,12.28 29.78,37.73 36.66,48.98 15.25,24.92 14.78,34.83 24.42,61.22 41.24,112.98 31.78,166.9 37.23,277.19l-4.94 472.63c0.99,95.35 -3.62,68.67 -30.69,129.89 -18.27,41.32 -34.65,65.13 -63.21,97.36 -175.66,198.21 -386.51,147.09 -677.18,147.09l-481.97 -0.24c-71.21,-0.3 -92.95,11.68 -160.33,11.68 -104.85,0 -213.14,-19.76 -320.58,-10.87l-375.23 10.14c0,52.49 5.66,53.98 41.46,87l10.99 10.41c2.19,2.21 8.2,8.81 10.3,11.12 58.76,64.7 105.76,144 168.4,206.27l424.68 463.82c94.45,94.1 168.33,211.49 262.11,305.25 57.18,57.17 85.49,87.88 134.28,154.75 11.72,16.06 15.61,23.83 26.13,38.1l79.4 91.89c82,89.12 141.26,136.46 214.39,245.91 23.8,35.62 35.13,44.64 64.97,74.2 65.01,64.42 156.84,147.76 202.67,225.52l71.7 88.88c65.52,71.03 134.88,136.83 192.66,214.12l162.23 191.04c8.95,8.06 2.24,6.12 18.34,13.77 47.4,22.53 1051.5,7.96 1190.99,7.96 24,0 23.49,-8.47 42.82,-21.41 -11.83,-44.29 -52.84,-54.98 -83.19,-88.08l-392.35 -464.05c-102.37,-131.21 -223.86,-238.44 -329.98,-365.84l-395.9 -460.49c-121.35,-122.56 -117.32,-119.74 8.29,-135.81 99.57,-12.75 119.09,-5.55 217.64,-39.28 79.59,-27.24 166.43,-39.48 242.04,-89.81 20.31,-13.52 25.95,-16.28 45.11,-29.82 35.53,-25.12 51.45,-23.92 81.04,-46.81 24.42,-18.88 48.93,-50 69.37,-70.51 23.93,-24.01 40.2,-40.36 64.38,-63.98 10.9,-10.66 22.59,-20.92 31.44,-32.79l27.95 -46.97c2.59,-4.31 7.96,-12.43 12.27,-19.85l140.7 -362.43 36.38 -231.24c0,-257.59 21,-1051.07 -20.54,-1253.34 -11.49,-55.94 -11.43,-113.62 -23.29,-169.4l-176.55 -401.52c-26.89,-55.12 -86.69,-116.19 -136.12,-152.91l-206.57 -125.28c-19.93,-8.25 -21.07,-4.7 -41.78,-11.75 -63.41,-21.58 -59.91,-37.59 -142.99,-49.7 -35.05,-5.1 -42,-11.14 -73.4,-22.94 -138.16,-51.89 -979.94,-50.49 -1105.64,-50.49l-2215.93 -0.01c-84.04,-0.19 -130.7,10.98 -203.01,11.08 -332.03,0.46 -269.06,-92.3 -267.98,385.03 0.19,84.04 -10.98,130.68 -11.08,203.01 -0.23,149.67 11.07,271.64 11.07,428.56z"/>
   <path class="fil0" d="M7075.92 22362.07l6.5 -3751.53 -60.54 -1.25c-37.15,5.76 -268.76,-4.64 -342.56,-4.64 -123.37,0 -387.39,18.63 -511.43,6.53 -83.94,-8.19 -68.26,-6.12 -66.82,100.33 11.09,820.05 0.19,1697.17 0.19,2526.55 0,227.28 46.95,745.01 -68.12,927.51 -44.84,71.11 -42.56,85.19 -121.87,156.39 -27.59,24.76 -138.32,87.55 -173.95,93.67 -227.64,39.09 -190.17,32.78 -428.59,32.45 -68.88,-0.1 -95.75,-11.65 -170.77,-11.21 -240.55,1.37 -460.85,18.55 -707.02,11.19 -59.54,-1.78 -97.37,-11.83 -171.26,-11.45 -157.65,0.8 -298.57,34.55 -505.36,-18.45l-105.75 -42.53c-53.36,-33.28 -73.26,-57.42 -114.11,-101.58 -217.81,-235.52 -85.07,-624.3 -135.35,-956.54 -34.21,-225.95 5.35,-483.18 4.54,-700.3 -1.22,-330.2 9.81,-775.99 0.32,-1092.29 -2.14,-71.39 -17.92,-80.68 -4.9,-164.71l-5.07 -713.85c-8.41,-77.68 -66.57,-29.13 -126.55,-33.89 -264.17,-20.98 -518.34,11.03 -697.33,1.3 -211,-11.46 -162.05,-95.27 -162.05,526.13 0,324.84 -7.92,2996.32 4.51,3078.49 15.93,105.21 -11.42,77.13 22.99,244.64 29.09,141.56 7.58,74.97 51.31,227.02 42.07,146.29 6.93,33.76 49.44,132.53l58.19 123.8c20.32,45.37 51.01,66.89 75.42,106.56 62.02,100.8 95.87,105.2 158.22,152.23l71.31 57.15c45.25,25.76 196.62,94.74 258.01,105.96 44.63,8.15 35.36,9.31 73.58,22.76 88.28,31.07 217.17,20.88 327.2,36.76 107.57,15.52 378.33,5.42 519.85,4.69 75.08,-0.39 106.89,10.41 170.79,11.2 146.58,1.81 264.66,-11.78 353.54,-11.27 241.96,1.39 488.67,18.79 707.23,0.7 92.92,-7.69 454.09,12.18 498.11,5.71l328.61 -32.25c47.41,-4.85 81.73,-7.72 137.53,-26.17 107.43,-35.54 157.32,-34.37 268.74,-95.23l213.14 -150.82c16.54,-15.07 23.98,-29.31 38.95,-46.69l147.87 -216.1c17.95,-32.02 14.49,-38.98 25.86,-70.49 12.46,-34.54 1.06,-5.12 14,-28.82 28.26,-51.78 58.75,-193.11 68.39,-252.75 8.45,-52.27 23.04,-108.61 25.06,-157.44z"/>
   <path class="fil0" d="M363.43 23561.21l1659.26 2.14 12.58 -23.1c-71.26,-46.76 -188.96,-171.3 -256.08,-238.86l-410.09 -392.78c-11.63,-10.24 -4.81,-4.59 -16.61,-15.5 -7.29,-6.75 -10.71,-9.88 -16.74,-15.37l-925.35 -894.49c-1.56,-1.55 -3.79,-3.8 -5.38,-5.32 -1.59,-1.53 -3.92,-3.68 -5.53,-5.18 -89.83,-83.8 -372.19,-327.96 -389.32,-392.14 31.89,-15.3 75.1,-10.08 109.83,-18.62 227.67,-55.98 437.84,-180.9 622.83,-319.21 103.15,-77.13 187.85,-167.88 270.33,-264.9 63.61,-74.82 106.62,-155.89 159.03,-237.06 46.56,-72.14 78.74,-147.76 106.16,-225.69 8,-22.74 14.81,-31.16 23.79,-51.14 36.43,-81.06 100.07,-348 100.03,-435.22 -0.04,-92.51 16.25,-173.25 4.18,-251.06 -13.25,-85.51 -0.45,-167.28 -16.37,-251.32l-83.34 -312.73c-11.04,-29.56 -10.11,-19.61 -20.44,-43.79 -8.84,-20.67 -11.4,-34.33 -20.64,-54.3l-89.19 -178.43c-62.56,-122.52 -152.88,-232.57 -246.77,-331.3 -169.75,-178.49 -371.84,-333.33 -602.67,-425 -83.19,-33.03 -212.26,-86.32 -297.96,-98.12 -293.6,-40.44 -309.43,-45.43 -628.98,-45.43 -144.15,0 -1453.58,-11.97 -1530.67,0.14 -44.72,7.02 -60.58,26.61 -38.6,68.89 25.83,49.69 135.99,163.92 169.88,334.8 8.36,42.13 22,54.79 32.54,106.63 21.14,104.1 2.75,333.85 18.03,399.46 308.15,71.79 1508.22,-51.79 1791.62,28.21 35.76,10.1 48.01,15.99 82.95,24.1 68.6,15.92 172.43,76.58 228.25,114.31l86.69 73.88c20.5,18.98 11.44,12.8 29.78,34.46l146.76 195.79c29.2,48.46 55.9,112.49 65.62,169.88 16.58,97.89 49.59,192 40.67,300.84 -6.25,76.15 -25.97,136.81 -39.44,196.13 -10.79,47.48 -6.6,42.54 -26.55,80.51 -18.7,35.6 -16.25,49.79 -34.19,83.56 -70.46,132.64 -169.36,245.38 -294.66,326.23 -17.47,11.27 -19.3,15.33 -37.58,26.63 -18.23,11.27 -18.71,9.45 -35.77,17.77l-120.26 51.01c-109.82,49.11 -302.37,45.48 -380.04,80.27 -25.86,11.59 -5.15,4.9 -36.14,17.39 -63.09,25.44 -272.86,87.37 -298.48,108.3 -22.27,18.21 -24.73,40.83 -38.36,68.7l-38.02 79.73c-32.4,58.8 -78.57,105.55 -125.29,153.04l-10.55 10.86c-1.56,1.55 -3.79,3.8 -5.37,5.33 -0.91,0.88 -13.87,12.7 -16.82,15.29 -121.43,106.62 -281.79,192.34 -430.59,254.53l-82.86 34.89c-197.42,74.36 -139.9,142.88 -19.1,236.15l510.36 485.2c21.27,21.41 36.89,39.16 59.07,58.68 15.2,13.37 23.17,17.86 35.01,29.22l40.95 44.69c7.36,7.7 5.5,6.31 15.99,16.12 18.7,17.48 15.17,11.85 33.82,30.41l48.81 47.54c1.62,1.49 3.93,3.66 5.55,5.15l676.28 651.13c8.91,8.25 7.67,6.67 16.96,15.15l72.48 66.69c1.55,1.56 3.74,3.85 5.3,5.41 1.55,1.56 3.77,3.82 5.32,5.37 10.69,10.67 14.56,14.37 26.79,26.74l357.3 338.71z"/>
   <path class="fil0" d="M8167.31 18626.06c0,133.33 7.11,286.75 0.05,417.54 -3.42,63.36 -16.9,122.1 -10.2,202.78l10.15 332.42c73.16,17.04 47.08,1.71 106.9,1.27 33.55,-0.25 74.58,9.77 128.48,9.59 96.62,-0.33 160.41,-11.09 257.03,-10.87l727.95 10.71c180.72,0 323.12,-10.7 503.12,-10.7 28.65,122.96 10.71,1672.91 10.71,1937.59l0 1712.78c-0.04,117.36 -22.32,181.98 64.23,181.98l899.21 0c47.86,0 35.64,-39.32 31.99,-62.24l0.35 -97.76c4.71,-575.55 -18.9,-3634.17 10.48,-3661.65 18.54,-17.34 927.32,0 974.15,0 182.5,0 530.78,-26.42 699.67,-2 38.7,5.6 71.08,9.79 71.08,-30.11l0 -920.62c0,-24.67 -7.45,-32.12 -32.11,-32.12l-396.09 0c-133.62,0 -242.6,10.77 -363.96,10.77l-535.25 -10.77c-175.93,0 -327.74,10.71 -492.42,10.71 -164.69,0 -316.5,-10.71 -492.43,-10.71 -333.64,0 -1276,-13.65 -1563.48,10.15 -94.13,7.78 -222.71,0.56 -320.58,0.56 -73.03,0 -236.46,-15.36 -289.03,10.7z"/>
   <path class="fil1" d="M-3169.19 18390.55c149.1,0 136.42,-14.83 206.91,28.6 1.97,1.22 4.51,3.01 6.55,4.16l100.96 59.61c33.46,23.13 25.46,18.82 48.35,47.99 109.14,139.08 100.66,178.81 87.08,352.31 -4.17,53.28 -0.08,34.75 -24.32,72.03 -1.24,1.91 -3.26,4.28 -4.47,6.23 -1.22,1.97 -2.98,4.53 -4.13,6.58 -50.21,89.27 -70.7,116.67 -170.82,171.73 -103.97,57.19 -274.23,57.32 -378.18,-6.99l-33.75 -19.77c-65.08,-41.03 -148.01,-154.28 -155.07,-219.6 -17.58,-162.71 -15.82,-232.98 86.54,-362.56 15.22,-19.27 22.07,-30.49 41.91,-43.72l85.12 -54.05c51.46,-22.5 69.84,-42.55 107.32,-42.55zm567.36 5170.8l1991.11 2.05c9.04,-13.95 10.71,14.48 10.71,-34.49l-488.21 -464.52c-1.62,-1.5 -3.9,-3.71 -5.52,-5.2 -99.7,-91.86 -206.96,-223.06 -309.14,-301.04 -109.74,-83.74 -221.24,-230.04 -333.44,-319.55 -25.68,-20.48 -41.56,-39.35 -65.32,-63.15l-530.18 -518.89c-80.03,-85.78 -93.54,-198.73 -76.55,-318 13.48,-94.61 119.29,-167.68 197.37,-209.41 72.68,-38.83 151.71,-63.42 228.9,-92.25 140.59,-52.51 294.03,-93.12 429.46,-159.31l179.98 -87.64c95.6,-57.09 243.22,-180.86 193.93,-307.6 -6.81,-17.53 -13.12,-26.53 -21.84,-42.69 -116.48,-215.95 -606.03,-336.65 -832.42,-409.34l-310.29 -85.8c-35.4,-11.07 -68.65,-7.34 -107.44,-21.01l-205.36 -62.27c-40.92,-9.89 -74.33,-11.94 -114.72,-24.44l-155.75 -36.94c-38.45,-11.14 -28.17,5.78 -39.25,-35.69 -4.25,-11.62 -22.92,12.02 28.31,-56.9l185.83 -264.21c20.42,-26.85 27.05,-39.19 47.6,-70.15 15.27,-23.01 27.95,-38.81 44.5,-62.55l46.13 -71.63c59.91,-88.96 129.13,-171.83 184.94,-264.66l71.54 -153.26c9.23,-28.08 19.58,-50.65 27.09,-79.96 10.5,-40.92 3.37,-66.93 8.14,-109.9 19.17,-172.94 -20.56,-242.99 -84.28,-390.02 -1.02,-2.37 -1.97,-5.33 -3,-7.7 -12.37,-28.39 -2.2,-9.83 -18.32,-35.2 -45.41,-71.48 -93.39,-128.65 -156.3,-186.26l-56.57 -50.48c-138.94,-102.75 -247.67,-120.56 -412.17,-155.33 -94.65,-20 -190.15,10.62 -283.65,35.79 -184.49,49.68 -342.1,194.02 -441.55,350.61 -76.86,121.02 -151.41,403.78 -96.99,553.68 11.08,30.5 16.27,37.37 26.67,80.39 40.09,165.77 184.15,311.07 276.81,451.12l355.81 511.28c136.27,208.22 92.99,119.24 249.21,189.7l583.74 208.42c128.82,57.39 373.24,117.48 444.74,230.2 32.85,51.79 7.99,108.1 -37.57,144.99 -46.29,37.47 -101.01,51.74 -154.18,70.63l-257.24 74.6c-42.37,8.54 -45.03,19.59 -86.47,31.29 -27.96,7.89 -61.37,11.92 -87.46,19.59 -32.03,9.42 -53.54,20.2 -88.87,28.89l-498.38 176.02c-31.84,12.14 -8.04,0.52 -35.46,18.06 -13.87,8.88 -25.73,16.81 -38.85,25.38 -68.39,44.69 -132.93,92.85 -190.92,151.64l-93.66 131.15c-125.18,222.95 -108.34,487.21 9.1,708.6 89.35,168.43 244.84,381.49 351.84,547.36l305.87 475.6c22.21,28.9 28.19,38.17 47.3,70.45l62.31 98.27c6.25,10.75 3.07,6.58 12.15,19.96l59.52 90.35c26.25,38.28 16.3,49.97 56.71,61.37z"/>
  </g>
 </g>
 <g id="Capa_x0020_1_0">
  <metadata id="CorelCorpID_1Corel-Layer"/>
 </g>
</svg>
